<svg version="1" xmlns="http://www.w3.org/2000/svg" width="617.333" height="617.333" viewBox="0 0 463.000000 463.000000"><path d="M164.5 1.2C89.7 9.6 25.3 65 5.9 137.7-6.7 184.9 1 237.2 26.8 280c17.9 29.6 46.2 55.5 77.5 70.9 42.7 20.9 91 24.3 137.2 9.4 62.9-20.2 111.5-74.1 124.5-138 12.2-60.3-6.8-123.8-49.8-167.1-15.4-15.5-29.6-25.9-49-35.6C236 4 198.8-2.7 164.5 1.2zM262 43.6c4.1 2.5 8.1 5.5 8.9 6.7.9 1.2 4.3 5 7.8 8.3 4.6 4.6 6.3 7.1 6.9 9.9.9 4.8-.2 29.5-1.3 30.6-.4.4-2.6-.2-4.8-1.4-3.2-1.8-4.8-3.7-8-10.2-4.8-9.7-10.1-18.1-11.9-18.8-.6-.3-6.4-1-12.7-1.7-6.2-.7-12-1.7-12.6-2.3-1.8-1.3-1.6-10.2.2-13.6.8-1.6 2.9-3.5 4.8-4.4 1.8-.9 5-3 7.1-4.7 2.2-1.6 4.8-3 6-3 1.2 0 5.5 2.1 9.6 4.6zM92.3 63.7c13.4 15.6 17 17.8 29.6 17.8 7.9.1 8.4.2 10.8 3 2 2.2 3.7 3 8 3.6 5.2.7 8.1 1.9 16.9 6.9 3.9 2.3 4.4 2.3 8.3 1 3.5-1.1 5.3-1.1 10-.2 10.6 2.2 10.2 2.5 16.2-9.4l5.4-10.5 4.3.5c6.5.9 6.8 1.5 2.6 5.7-2.1 2.1-3.6 4-3.3 4.3 2.3 2.1 12.5 8.6 13.6 8.6 2.3 0-.2-3.5-4.2-5.9-2.7-1.5-3.5-2.7-3.5-4.8 0-4.7 2.5-7.1 9.6-9.3 7.8-2.4 15.8-2.5 23.4-.5 3 .8 7.3 1.5 9.5 1.5 4.7 0 7.9 1.9 10 6 .9 1.7 2.8 3.3 5 4 1.9.6 3.5 1.7 3.5 2.4 0 1.9-4.7 6.6-6.6 6.6-1.4 0-1.4.3-.4 1.5 3 3.6-4.2 10.5-10.7 10.5-3.9 0-4 .3-1.2 4.1 2.7 3.8 4.2 3.7 7.5-.6 1.4-1.9 2.9-3.5 3.3-3.5.4 0 2.1 2 3.8 4.4 1.9 2.6 5.5 5.8 9 7.8 5 3 5.8 3.8 5.8 6.4 0 2.6-1.1 3.6-9.5 9.1-5.2 3.5-9.9 6.4-10.4 6.6-.5.2-.6 1.5-.2 3 .5 2.3 1 2.6 3.6 2 2.6-.5 3-.2 3 1.6 0 1.3-1.4 3-4.1 4.6-5.8 3.7-6.8 3.9-8.8 2.1-1.7-1.6-1.9-1.5-3.4.7-.8 1.3-3.9 4.9-6.7 8-2.9 3.2-6.5 8.4-8 11.6-1.5 3.1-4.8 7.9-7.2 10.5-4.2 4.4-4.6 5.3-5.2 11.7-.4 3.8-1 6.9-1.4 6.9-1.2 0-6.2-6.8-6.2-8.4 0-2 .4-2-8.2.4-4 1.1-9.1 2-11.5 2-5.5 0-8.3 3.3-8.3 9.7 0 10 5.8 13.5 11.5 6.8 2.1-2.5 4.1-3.8 6.8-4.2 4.3-.7 4.5-.1 2.3 7-1.3 4.3-1.3 4.6.8 5.1 1.1.3 3.3.6 4.9.6 2.6 0 2.7.2 2.7 4.8 0 2.6.5 5.3 1.2 6 2.5 2.5 10.7.6 16.3-3.8l3.8-3 13.1.7c7.5.3 14 1.1 15.1 1.8 1.1.7 4.9 1.5 8.5 1.8 6.6.4 10.1 1.8 15.3 6 2.7 2.1 3.8 2.2 18.5 2.2h15.7l.3 2.5c.2 1.6-1.3 4.9-4.3 9.4-4.1 6.3-5 8.5-7 17-.6 3-6.7 9.6-8.7 9.6-2.5 0-8 5.5-10.5 10.3-3.3 6.7-13.6 17.3-22.7 23.5-3.9 2.7-7.8 5.1-8.6 5.4-.8.3-2.9 4-4.7 8.1l-3.1 7.6 3.6.3 3.7.3-5.8 2.2c-8 3.2-17 3.2-19.1.1-2.2-3.2-2-8.5.8-18.2 2.4-8.1 5-29.1 3.9-30.9-.3-.5-2.6-1.8-5.2-2.9-2.5-1-5.7-2.9-6.9-4.1-3.9-3.6-11.2-14.4-11.2-16.5 0-3.7 2.8-11.2 5.5-14.3 1.7-2.1 2.5-4.1 2.3-5.8-.3-2.4-.7-2.6-4.9-2.7-5.7-.2-8.4-1.5-12.9-6.4-3.9-4.1-12.9-8-18.6-8-2.1 0-6.9-1.7-12.2-4.4-8-4-8.9-4.8-10-8.3-.6-2.1-2.5-5.4-4.1-7.3l-3-3.5.9 3.2c1 3.7-.2 5.2-2.6 3.2-1.6-1.3-16-21.8-23.3-33.2-4.3-6.7-4.4-7-5-17.5-1-16.2-5.2-23.3-25.5-42.9-13.2-12.9-16.3-14.4-24.7-12.5-6.8 1.6-14 1.4-22.3-.6-11.9-2.9-9.3-6.1 4.1-5.1 4.3.3 7.9.4 8.1.3.1-.1-1.3-2.2-3.2-4.6-4.1-5.5-5.6-8.2-5.6-10.2 0-2.6 15.2-18.7 19.5-20.7 6.2-2.9 9.2-2.5 12.8 1.8zM220 345.4l3.2 1.3-2.6.7c-3.1.8-4.6.1-4.6-2 0-1.7 0-1.7 4 0z"/><path d="M224.9 93.7c-2.7 6.5-4.7 8.4-16.6 16.4-11.9 8-13.2 9.7-10 12.6 4 3.7 7.1 5.1 13.6 6.4 3.7.7 7.4 2.2 9.1 3.5l2.8 2.4.6-2.3c.3-1.3 1.7-2.9 3-3.7 3.3-1.7 4-3.9 2.1-6-1.3-1.4-1.4-2.9-.9-7.1.4-3 1.1-6 1.7-6.7.5-.7 3.2-1.2 6.2-1.2 7.3 0 7.6-1.2.8-3.1-6.6-1.8-7.5-3.8-2.6-5.4 4.2-1.4 4.7-1.9 3.9-4.8-.4-1.7-1.9-3-4.6-4.1-6-2.4-6.9-2.1-9.1 3.1zM334.4 322.9c-5.5 2.5-11.1 7.6-13.5 12.4-4.5 8.8-3.1 21.1 3.3 29.5 1.8 2.4 23.6 24 48.3 48 50 48.5 53.1 51 62.3 49.7 2.6-.3 6.7-1.3 9.2-2.1 14.5-4.6 21.6-22.4 14.7-36.6-3.8-7.7-94.4-96.8-102-100.4-6.6-3-16.2-3.2-22.3-.5z"/></svg>