<?xml version="1.0" encoding="iso-8859-1"?>
<!-- Generator: Adobe Illustrator 16.0.0, SVG Export Plug-In . SVG Version: 6.00 Build 0)  -->
<!DOCTYPE svg PUBLIC "-//W3C//DTD SVG 1.1//EN" "http://www.w3.org/Graphics/SVG/1.1/DTD/svg11.dtd">
<svg xmlns="http://www.w3.org/2000/svg" xmlns:xlink="http://www.w3.org/1999/xlink" version="1.1" id="Capa_1" x="0px" y="0px" width="512px" height="512px" viewBox="0 0 407.601 407.601" style="enable-background:new 0 0 407.601 407.601;" xml:space="preserve">
<g>
	<path d="M325.891,57.796H81.72c-11.748,0-21.3,9.552-21.3,21.293v249.42c0,11.75,9.552,21.309,21.3,21.309h244.171   c11.738,0,21.29-9.553,21.29-21.309V79.089C347.181,67.348,337.629,57.796,325.891,57.796z M228.008,127.135   c0,6.682-5.42,12.105-12.104,12.105H113.011c-6.682,0-12.105-5.423-12.105-12.105v-14.121c0-6.682,5.423-12.105,12.105-12.105   h102.892c6.685,0,12.104,5.423,12.104,12.105V127.135z M365.835,0H41.766C20.629,0,3.482,17.142,3.482,38.275v331.035   c0,21.149,17.147,38.29,38.284,38.29h324.069c21.137,0,38.284-17.141,38.284-38.29V38.275C404.119,17.142,386.972,0,365.835,0z    M362.277,328.509c0,20.061-16.326,36.393-36.387,36.393H81.72c-20.064,0-36.396-16.326-36.396-36.393V79.089   c0-20.058,16.325-36.39,36.396-36.39h244.171c20.055,0,36.387,16.326,36.387,36.39V328.509z" fill="#FFFFFF"/>
</g>
<g>
</g>
<g>
</g>
<g>
</g>
<g>
</g>
<g>
</g>
<g>
</g>
<g>
</g>
<g>
</g>
<g>
</g>
<g>
</g>
<g>
</g>
<g>
</g>
<g>
</g>
<g>
</g>
<g>
</g>
</svg>
