<?xml version="1.0" encoding="iso-8859-1"?>
<!-- Generator: Adobe Illustrator 16.0.0, SVG Export Plug-In . SVG Version: 6.00 Build 0)  -->
<!DOCTYPE svg PUBLIC "-//W3C//DTD SVG 1.1//EN" "http://www.w3.org/Graphics/SVG/1.1/DTD/svg11.dtd">
<svg xmlns="http://www.w3.org/2000/svg" xmlns:xlink="http://www.w3.org/1999/xlink" version="1.1" id="Capa_1" x="0px" y="0px" width="512px" height="512px" viewBox="0 0 377.343 377.343" style="enable-background:new 0 0 377.343 377.343;" xml:space="preserve">
<g>
	<path d="M301.689,53.505H75.651c-10.876,0-19.725,8.843-19.725,19.713v230.904c0,10.878,8.843,19.727,19.725,19.727h226.039   c10.873,0,19.722-8.843,19.722-19.727V73.218C321.406,62.348,312.562,53.505,301.689,53.505z M188.67,141.046   c0,6.187-5.021,11.207-11.208,11.207h-29.888v29.889c0,6.193-5.015,11.205-11.206,11.205h-13.067   c-6.193,0-11.208-5.012-11.208-11.205v-29.889H82.207c-6.187,0-11.208-5.02-11.208-11.207v-13.073   c0-6.186,5.021-11.207,11.208-11.207h29.887V86.884c0-6.187,5.015-11.207,11.208-11.207h13.067c6.191,0,11.206,5.02,11.206,11.207   v29.882h29.888c6.187,0,11.208,5.021,11.208,11.207V141.046z M338.677,0H38.662C19.094,0,3.226,15.869,3.226,35.434v306.462   c0,19.581,15.869,35.447,35.437,35.447h300.02c19.568,0,35.436-15.866,35.436-35.447V35.434C374.117,15.869,358.25,0,338.677,0z    M335.381,304.122c0,18.572-15.113,33.691-33.691,33.691H75.651c-18.576,0-33.695-15.114-33.695-33.691V73.218   c0-18.569,15.114-33.688,33.695-33.688h226.039c18.572,0,33.691,15.114,33.691,33.688V304.122z" fill="#FFFFFF"/>
</g>
<g>
</g>
<g>
</g>
<g>
</g>
<g>
</g>
<g>
</g>
<g>
</g>
<g>
</g>
<g>
</g>
<g>
</g>
<g>
</g>
<g>
</g>
<g>
</g>
<g>
</g>
<g>
</g>
<g>
</g>
</svg>
