<?xml version="1.0" encoding="UTF-8" standalone="no"?>
<!-- Created with Inkscape (http://www.inkscape.org/) -->

<svg
   xmlns:osb="http://www.openswatchbook.org/uri/2009/osb"
   xmlns:dc="http://purl.org/dc/elements/1.1/"
   xmlns:cc="http://creativecommons.org/ns#"
   xmlns:rdf="http://www.w3.org/1999/02/22-rdf-syntax-ns#"
   xmlns:svg="http://www.w3.org/2000/svg"
   xmlns="http://www.w3.org/2000/svg"
   xmlns:xlink="http://www.w3.org/1999/xlink"
   xmlns:sodipodi="http://sodipodi.sourceforge.net/DTD/sodipodi-0.dtd"
   xmlns:inkscape="http://www.inkscape.org/namespaces/inkscape"
   width="3000"
   height="1263.327"
   viewBox="0 0 3000 1263.327"
   id="svg2"
   version="1.1"
   inkscape:version="0.91 r13725"
   sodipodi:docname="TROLLS.svg">
  <title
     id="title5628">DreamWorks Trolls</title>
  <defs
     id="defs4">
    <linearGradient
       id="linearGradient4134"
       osb:paint="solid">
      <stop
         style="stop-color:#e76b21;stop-opacity:1;"
         offset="0"
         id="stop4136" />
    </linearGradient>
    <linearGradient
       inkscape:collect="always"
       xlink:href="#linearGradient4134"
       id="linearGradient4138"
       x1="-448.57144"
       y1="338.91297"
       x2="2511.4286"
       y2="338.91297"
       gradientUnits="userSpaceOnUse" />
  </defs>
  <sodipodi:namedview
     id="base"
     pagecolor="#ffffff"
     bordercolor="#666666"
     borderopacity="1.0"
     inkscape:pageopacity="0.0"
     inkscape:pageshadow="2"
     inkscape:zoom="0.27533784"
     inkscape:cx="1500"
     inkscape:cy="631.66353"
     inkscape:document-units="px"
     inkscape:current-layer="layer1"
     showgrid="false"
     fit-margin-top="20"
     fit-margin-left="20"
     fit-margin-right="20"
     fit-margin-bottom="20"
     inkscape:showpageshadow="false"
     inkscape:window-width="1366"
     inkscape:window-height="715"
     inkscape:window-x="-8"
     inkscape:window-y="-8"
     inkscape:window-maximized="1"
     units="px" />
  <metadata
     id="metadata7">
    <rdf:RDF>
      <cc:Work
         rdf:about="">
        <dc:format>image/svg+xml</dc:format>
        <dc:type
           rdf:resource="http://purl.org/dc/dcmitype/StillImage" />
        <dc:title>DreamWorks Trolls</dc:title>
      </cc:Work>
    </rdf:RDF>
  </metadata>
  <g
     inkscape:label="Capa 1"
     inkscape:groupmode="layer"
     id="layer1"
     transform="translate(468.57144,292.75052)"
     style="display:inline">
    <path
       id="rect4165"
       style="fill:url(#linearGradient4138);fill-opacity:1;fill-rule:evenodd;stroke:none;stroke-width:1px;stroke-linecap:butt;stroke-linejoin:miter;stroke-opacity:1"
       d="m 701.34589,-272.74069 c -58.32893,0.25343 -117.39295,5.36261 -174.94221,11.47571 -108.58441,11.53432 -213.32623,46.87679 -320.58963,67.32613 -74.55351,14.21331 -148.771468,32.23299 -224.410788,38.47345 -256.570162,21.16783 -366.925022,-71.55501 -366.925022,-71.55501 0,0 15.55136,36.42354 50.24712,71.07448 -43.98083,-30.93437 -98.55274,-107.83718 -98.55274,-107.83718 0,0 -11.51813,61.31125 41.76047,125.14683 -27.62885,-20.84355 -56.13878,-80.3973 -56.13878,-80.3973 0,0 -2.3395,55.04964 4.81521,81.20467 11.41277,41.720848 29.02835,84.525788 59.3104,115.410698 54.39628,55.47918 128.80946,96.301429 205.17893,110.605138 79.057874,14.807214 142.773722,4.863532 213.194562,-4.81516 10.42293,-1.432527 22.43197,-3.679956 35.1288,-6.36259 l 0,853.883654 c 0,10.90474 8.7789,19.68364 19.68364,19.68364 l 207.629748,0 c 10.90473,0 19.68359,-8.7789 19.68364,-19.68364 l 0,-828.86584 C 321.6419,0.15744799 369.46773,-15.124292 420.61371,-28.828832 c 63.84517,-17.10725 122.22847,-27.06791 184.34193,-33.66788 76.01704,-8.07738 140.51738,-10.30936 229.22603,-7.13148 103.4688,3.70662 139.4578,95.29461 139.4578,95.29461 0,0 32.67643,-43.19024 35.26333,-89.75859 2.3368,-42.065318 -11.06173,-91.272948 -38.07943,-123.599438 -36.8742,-44.11985 -82.733,-65.85231 -135.7671,-75.0054 -43.42186,-7.49415 -88.34343,-10.24081 -133.71038,-10.04368 z m 738.52101,183.669138 c -10.9047,-5e-5 -19.6836,8.77891 -19.6836,19.68364 l 0,866.704942 c 0,10.90474 8.7789,19.68364 19.6836,19.68364 l 204.4869,0 c 10.9047,0 19.6836,-8.7789 19.6836,-19.68364 l 0,-746.056122 c 0,-61.03612 10.3163,-96.43218 40.2035,-126.31938 6.0765,-6.07649 5.955,-14.01308 -8.8423,-14.01308 z m -589.71153,85.74111 c -105.0804,4.48221 -171.61092,12.08349 -251.25477,73.890519 0,0 -4.07279,-19.548959 -26.60367,-19.212659 l -198.0474,2.96022 c -6.96629,0.10383 -17.39635,2.45056 -14.77233,14.772328 11.66871,54.794284 12.97502,75.261974 12.97502,138.929204 l 0,518.68512 c 5e-5,10.90474 8.7789,19.68364 19.68364,19.68364 l 192.84782,0 c 10.90473,0 19.68364,-8.7789 19.68364,-19.68364 l 0,-227.53443 0.01,0.01 c 0,-101.43069 11.78917,-180.43168 39.37688,-226.77514 48.81942,-82.00958 129.62756,-87.20065 157.325,-89.50865 l 17.73253,-1.48016 c 10.6208,-0.88508 24.1993,-7.34973 26.6037,-17.73255 l 32.5145,-140.409322 c 3.0801,-13.30009 -9.4548,-26.29252 -28.0741,-26.59408 z m 890.57913,15.2529 c -10.9048,-5e-5 -19.6837,8.77891 -19.6837,19.68364 l 0,894.048672 c 0,10.90473 8.7789,19.68364 19.6837,19.68364 l 204.4869,0 c 10.9047,0 19.6836,-8.77891 19.6836,-19.68364 l 0,-773.39986 c 0,-61.036113 10.3162,-96.432222 40.2034,-126.319422 6.0765,-6.07649 5.955,-14.01303 -8.8422,-14.01303 z m 526.8834,26.83432 c -22.4996,-0.31691 -45.5615,2.08321 -68.2488,7.45828 -51.2829,12.14987 -78.487,32.328064 -111.2299,64.212122 -26.441,25.74753 -46.1446,59.39986 -57.8495,94.40072 -11.8041,35.29745 -14.3634,70.08253 -8.5059,106.8376 6.188,38.82888 24.9833,88.89654 50.4297,118.87074 36.1251,42.55293 61.5589,55.50629 95.1024,86.41384 34.9466,32.20047 61.3452,55.61652 68.2584,95.65984 3.3351,19.31792 -10.1326,38.49244 -25.6234,50.5066 -20.1958,15.66336 -51.3428,15.37012 -76.1299,9.1402 -34.275,-8.6146 -63.3346,-34.46931 -86.7887,-60.90586 -15.6719,-17.66474 -33.4949,-62.42446 -33.4949,-62.42446 0,0 -37.584,32.48022 -24.3642,158.34378 4.8617,46.288 32.1975,90.84866 66.5476,122.25381 30.8876,28.23963 73.4584,42.3496 114.6418,49.79543 48.9842,8.85617 102.4173,3.24343 150.2896,-10.39931 38.6853,-11.02461 81.3675,-32.64512 110.4321,-60.45412 34.5948,-33.10026 52.8228,-66.41443 68.1487,-111.77454 12.2371,-36.218 14.6053,-71.3377 10.0285,-113.45321 -4.3275,-39.82109 -18.8624,-76.94026 -41.3664,-110.07654 -22.5852,-33.25575 -61.2703,-61.0836 -91.0945,-88.03818 -32.0602,-28.97536 -79.8534,-53.90981 -96.8132,-85.89489 -9.8888,-18.64985 -6.0159,-49.47985 10.6588,-62.42441 19.7094,-15.30038 51.8466,-13.4265 74.6018,6.08382 24.7123,21.18841 28.7469,73.26587 28.7469,73.26587 0,0 57.449,-33.10036 66.5476,-83.21339 7.2588,-39.97964 3.3364,-79.02834 -17.6461,-113.82489 -20.3897,-33.813687 -56.1049,-52.988312 -93.3242,-66.172802 -25.0389,-8.8697 -53.0263,-13.77836 -81.9543,-14.18605 z m -978.723,48.046141 c -2.8709,0 -6.1832,2.068702 -9.0729,7.073809 -4.5062,7.804962 -9.5721,17.241242 -17.6461,24.950592 -11.6502,11.12411 -24.6779,18.90633 -39.2615,25.18118 -16.7787,7.21932 -34.4464,13.12097 -52.5538,15.52203 -25.0684,3.32408 -50.5558,-1.46855 -75.8416,-1.78767 -21.9281,-0.27655 -65.7884,-0.1058 -65.7884,-0.1058 -203.13143,0 -367.80925,161.37668 -367.80921,360.44704 0,199.07032 164.66828,360.44709 367.79961,360.44709 203.1313,0 367.7996,-161.37677 367.7996,-360.44709 10e-5,-101.79341 -43.1812,-193.60327 -112.4216,-259.14552 -6.8596,11.90304 -14.7331,23.2356 -23.6242,33.8601 -37.5005,44.81138 -92.7463,76.93065 -162.4093,89.10499 46.9484,22.24384 79.2151,68.26272 79.2151,121.46578 0,74.94768 -63.9981,135.70946 -142.9371,135.70946 -78.93893,0 -142.92743,-60.76178 -142.92743,-135.70946 0,-74.94768 63.9884,-135.69986 142.92743,-135.69986 95.3755,0 166.715,-34.54277 211.0321,-87.49994 41.3103,-49.36406 61.0734,-115.4355 49.978,-185.476051 -0.557,-3.516039 -2.1621,-7.890778 -6.4587,-7.890778 z" />
  </g>
</svg>
